/vscmnt/brussel_pixiu_data/_data_brussel/112/vsc11236/PredSimResults/SUBJ04mtu3D/worker5.mot
version=1
nRows=6
nColumns=50
inDegrees=yes
endheader
                time	         pelvis_tilt	         pelvis_list	     pelvis_rotation	           pelvis_tx	           pelvis_ty	           pelvis_tz	       hip_flexion_r	     hip_adduction_r	      hip_rotation_r	        knee_angle_r	       ankle_angle_r	         mtp_angle_r	       hip_flexion_l	     hip_adduction_l	      hip_rotation_l	        knee_angle_l	       ankle_angle_l	         mtp_angle_l	    lumbar_extension	      lumbar_bending	     lumbar_rotation	 ercspn_r/activation	 intobl_r/activation	 extobl_r/activation	    abd_r/activation	    add_r/activation	hamstrings_r/activation	bifemsh_r/activation	glut_max_r/activation	iliopsoas_r/activation	rect_fem_r/activation	  vasti_r/activation	gastroc_r/activation	 soleus_r/activation	tib_ant_r/activation	 ercspn_l/activation	 intobl_l/activation	 extobl_l/activation	    abd_l/activation	    add_l/activation	hamstrings_l/activation	bifemsh_l/activation	glut_max_l/activation	iliopsoas_l/activation	rect_fem_l/activation	  vasti_l/activation	gastroc_l/activation	 soleus_l/activation	tib_ant_l/activation	
          1.31264798	         -2.69967726	          0.87874345	          7.73175210	          1.23388910	          0.88085114	         -0.01139385	         29.63431579	         -3.85063212	        -10.51697889	        -11.08369626	          4.85580456	          0.23582060	        -12.00601639	         -0.05872010	         -9.81475432	         -8.57914332	         12.05906265	         22.16016086	        -13.77147098	         -3.62515749	         -7.51750681	          0.03228135	          0.22191757	          0.01810382	          0.01143962	          0.29171691	          0.06948373	          0.05933704	          0.03009607	          0.15540650	          0.02472074	          0.02120921	          0.01485412	          0.01631146	          0.30494550	          0.03869879	          0.00999999	          0.00999999	          0.04960730	          0.01000000	          0.02317220	          0.16466378	          0.01701259	          0.01000003	          0.00999999	          0.00999999	          0.28259653	          0.25264295	          0.00999999	
          1.32577446	         -2.78081799	          0.87318212	          7.50579945	          1.24969586	          0.87864688	         -0.01089828	         29.48934657	         -3.75626018	        -10.63640710	        -12.48909639	          4.60008269	          0.22394268	        -12.69239703	         -0.19157824	        -10.46284888	         -9.15501435	         11.70359425	         23.57795877	        -13.27288878	         -3.02587858	         -7.60858393	          0.02648673	          0.22535602	          0.01485411	          0.02895337	          0.23935262	          0.06585649	          0.04868582	          0.04997102	          0.12751044	          0.02028328	          0.01740207	          0.01218775	          0.01338349	          0.33163320	          0.04069310	          0.00999999	          0.00999999	          0.04070260	          0.01000000	          0.01901271	          0.13510601	          0.01395876	          0.01000000	          0.00999999	          0.00999999	          0.25300658	          0.24398111	          0.00999999	
          1.33890094	         -2.84762912	          0.81400060	          7.22968463	          1.26577613	          0.87670106	         -0.01030784	         29.28417230	         -3.63273558	        -10.78330651	        -13.76479867	          4.14076664	          0.21578652	        -13.27901717	         -0.39904025	        -11.14329674	         -9.96423971	         11.25226297	         25.02367857	        -12.75409130	         -2.34767087	         -7.66879473	          0.02865855	          0.18490376	          0.01218774	          0.05174803	          0.22415981	          0.06753637	          0.03994653	          0.04100104	          0.10462183	          0.01664235	          0.07733006	          0.01000000	          0.01098111	          0.36122932	          0.04814098	          0.00999999	          0.00999999	          0.03339633	          0.00999999	          0.01559986	          0.11085397	          0.01145311	          0.01810380	          0.01000000	          0.00999999	          0.20759094	          0.22863265	          0.00999999	
          1.35202742	         -2.90082073	          0.71747804	          6.90435472	          1.28198123	          0.87519851	         -0.00960004	         29.03007310	         -3.47687536	        -11.01725505	        -14.95981027	          3.67230224	          0.19358593	        -13.70114898	         -0.67691523	        -11.85564599	        -11.10145432	         10.66237508	         26.49406755	        -12.23805263	         -1.61458710	         -7.69500765	          0.03109447	          0.15171284	          0.01000000	          0.07349068	          0.20796115	          0.06732485	          0.03277598	          0.03364121	          0.08584182	          0.01365499	          0.14490908	          0.00999999	          0.00999999	          0.38754555	          0.06002945	          0.00999999	          0.00999999	          0.02740156	          0.00999999	          0.01279965	          0.09095527	          0.00999999	          0.01485410	          0.00999999	          0.00999999	          0.17032758	          0.21159961	          0.00999999	
          1.36515390	         -2.94101035	          0.58151077	          6.54322207	          1.29820868	          0.87429690	         -0.00877315	         28.67583722	         -3.27329800	        -11.31461601	        -16.02993867	          3.40447065	          0.16988363	        -13.90203454	         -1.04461488	        -12.58957006	        -12.64514720	          9.88914700	         27.98708739	        -11.73711492	         -0.83097737	         -7.68766985	          0.02963073	          0.12447981	          0.00999999	          0.10443216	          0.18358759	          0.06746206	          0.02689257	          0.03695358	          0.07043289	          0.01120386	          0.19308354	          0.00999999	          0.00999999	          0.39242435	          0.08678114	          0.00999999	          0.00999999	          0.02248288	          0.00999999	          0.01718137	          0.07462845	          0.00999999	          0.01218774	          0.00999999	          0.01074507	          0.13975314	          0.17574048	          0.00999999	
          1.37828038	         -2.96968341	          0.40494305	          6.16195519	          1.31430007	          0.87414655	         -0.00783169	         28.21655852	         -3.00407169	        -11.59480029	        -16.95129167	          3.35367135	          0.14989247	        -13.81852152	         -1.52377280	        -13.33218276	        -14.67653390	          8.90016313	         29.45657747	        -11.26817110	         -0.00175871	         -7.65234541	          0.02431193	          0.10213521	          0.00999999	          0.12704672	          0.17349042	          0.06705458	          0.02206525	          0.03082267	          0.05778992	          0.00999999	          0.21829241	          0.01000000	          0.01000002	          0.38438145	          0.10709092	          0.00999999	          0.00999999	          0.01844712	          0.01000000	          0.06215030	          0.06123236	          0.01024968	          0.00999999	          0.00999999	          0.01985214	          0.11466692	          0.14419440	          0.00999999	
